<svg xmlns="http://www.w3.org/2000/svg" width="611" height="200" fill="none" viewBox="0 0 2458 804"><style>.tile{stroke:#222}.three{stroke:#60869f}.eight{stroke:#a32121}.eight-eight-join{fill:#690505}.three-eight-join{fill:#3d1214}.three-three-join{fill:#244662}</style><g><line x1="38.5" x2="379.5" y1="145.5" y2="145.5" stroke-linecap="round" stroke-width="76" class="tile"/><line x1="209" x2="209" y1="145.5" y2="656.5" stroke-linecap="round" stroke-width="76" class="tile"/><line x1="553.5" x2="553.5" y1="145.5" y2="656.5" stroke-linecap="round" stroke-width="76" class="tile"/><line x1="743" x2="1046" y1="656.5" y2="656.5" stroke-linecap="round" stroke-width="76" class="tile"/><line x1="743" x2="743" y1="145.5" y2="656.5" stroke-linecap="round" stroke-width="76" class="tile"/><line x1="1191.5" x2="1494.5" y1="145.5" y2="145.5" stroke-linecap="round" stroke-width="76" class="tile"/><line x1="1191.5" x2="1453.5" y1="401" y2="401" stroke-linecap="round" stroke-width="76" class="tile"/><line x1="1191.5" x2="1494.5" y1="656.5" y2="656.5" stroke-linecap="round" stroke-width="76" class="tile"/><line x1="1191.5" x2="1191.5" y1="145.5" y2="656.5" stroke-linecap="round" stroke-width="76" class="tile"/></g><defs><clipPath id="mask-circle-join"><circle cx="107" cy="186" r="186"/></clipPath><circle id="circle-join" cx="107" cy="-119" r="186" stroke-width="67" clip-path="url(#mask-circle-join)"/><clipPath id="mask-circle-join-half"><rect width="119" height="67"/></clipPath><use id="circle-join-half" clip-path="url(#mask-circle-join-half)" href="#circle-join"/></defs><g class="thirty-eight" transform="translate(2056 -77) rotate(45)"><g><g><g><g><path stroke-linecap="round" stroke-width="67" d="M 0 0 a 1 1 0 0 0 305 0" class="three" transform="translate(186 186) translate(0 0) rotate(180 0 0) translate(-152.5 0)"/></g></g><g><g><path stroke-linecap="round" stroke-width="67" d="M 0 0 a 1 1 0 0 0 305 0" class="three" transform="translate(186 186) translate(0 0) rotate(271 0 0) translate(-152.5 0)"/></g></g></g><g><g><g><path stroke-linecap="round" stroke-width="67" d="M 0 0 a 1 1 0 0 0 305 0" class="three" transform="translate(186 186) translate(0 305) rotate(90 0 0) translate(0 0) rotate(180 0 0) translate(-152.5 0)"/></g></g><g><g><path stroke-linecap="round" stroke-width="67" d="M 0 0 a 1 1 0 0 0 305 0" class="three" transform="translate(186 186) translate(0 305) rotate(90 0 0) translate(0 0) rotate(271 0 0) translate(-152.5 0)"/></g></g></g></g><circle cx="491" cy="186" r="152.5" stroke-width="67" class="eight"/><circle cx="491" cy="491" r="152.5" stroke-width="67" class="eight"/><use class="eight-eight-join" href="#circle-join" transform="translate(384 305)"/><use class="three-eight-join" href="#circle-join" transform="translate(372 79) rotate(90)"/><use class="three-eight-join" href="#circle-join" transform="translate(372 384) rotate(90)"/><use class="three-three-join" href="#circle-join-half" transform="translate(293 372) rotate(180)"/><circle cx="179" cy="338.5" r="33.5" class="three-three-join"/></g></svg>